# xmcd
#
# Track frame offsets: 
#        150
#        13145
#        26312
#        39947
#        53592
#        67095
#        80112
#        93070
#        106997
#        121067
#        133005
#        145045
#        158890
#        172325
#        185070
#        196722
#        210125
#        222345
#        236290
#        250845
#        266000
#        278585
#        290975
#
# Disc length: 4050 seconds
#
# Revision: 0
# Processed by: cddbd v1.5.2PL0 Copyright (c) Steve Scherf et al.
# Submitted via: ExactAudioCopyFreeDBPlugin 1.0
#
DISCID=460fd017
DTITLE=Bill Gaither - Complete Recorded Works Vol. 2 (1936-1938)
DYEAR=1994
DGENRE=Blues
TTITLE0=You Done Showed Your D-B-A, No. 2
TTITLE1=Tee-Ninecy Mama (Little Sweet Mama)
TTITLE2=Just the Wrong Man
TTITLE3=Jiving Man Blues
TTITLE4=You're a Mean Mistreater
TTITLE5=Sunrise Blues
TTITLE6=Orneriest Girl in Town
TTITLE7='Leven Light City
TTITLE8=Prisoner Bound
TTITLE9=New Bad Luck Child
TTITLE10=New Little Pretty Mama
TTITLE11=I'm Wise to Your Sweet Line of Jive
TTITLE12=I Just Keep On Worrying
TTITLE13=Blake Street Blues
TTITLE14=New Evil Hearted Blues
TTITLE15=Won't You Tell Me Baby
TTITLE16=Tired of Sleeping by Myself
TTITLE17=Rocky Mountain Blues
TTITLE18=In the Wee Wee Hours
TTITLE19=Do Like You Want to Do
TTITLE20=Thousand Years and a Day
TTITLE21=Mean Old World to Live In
TTITLE22=Do Like I Want to Do
EXTD=
EXTT0=
EXTT1=
EXTT2=
EXTT3=
EXTT4=
EXTT5=
EXTT6=
EXTT7=
EXTT8=
EXTT9=
EXTT10=
EXTT11=
EXTT12=
EXTT13=
EXTT14=
EXTT15=
EXTT16=
EXTT17=
EXTT18=
EXTT19=
EXTT20=
EXTT21=
EXTT22=
PLAYORDER=
